#!OML:ASF F:\VICON\USERDATA\INSTALL\rory3\rory3.ASF
:FULLY-SPECIFIED
:DEGREES
896
root 0.698694 28.8137 0.391216 -169.71 7.42413 187.51
lowerback 18.7018 5.62893 -4.98079
upperback 3.99064 7.3733 3.62034
thorax -7.18452 3.98801 4.83401
lowerneck -14.3523 1.1907 -0.785367
upperneck 39.9771 -1.98733 -2.72462
head 16.8963 -2.70953 -1.86275
rclavicle -1.67973e-014 8.15017e-015
rhumerus 48.6112 4.14889 -59.5924
rradius 75.5005
rwrist 43.8008
rhand 6.55603 7.20752
rfingers 7.12502
rthumb 31.853 -20.0278
lclavicle -1.67973e-014 8.15017e-015
lhumerus 20.9563 -27.5253 88.9508
lradius 75.0218
lwrist -38.7157
lhand -19.2428 36.3084
lfingers 7.12502
lthumb 7.0708 66.1703
rfemur -71.3667 -1.17143 26.6792
rtibia 106.754
rfoot -7.97667 -0.60301
rtoes -2.83604
lfemur -23.4402 6.20411 -17.5825
ltibia 14.0551
lfoot 5.87788 -3.44691
ltoes -5.22483
897
root 0.700992 28.8201 0.394665 -169.742 7.23744 187.572
lowerback 18.6733 5.64485 -5.07137
upperback 3.98549 7.37875 3.63007
thorax -7.18758 3.99307 4.89601
lowerneck -14.3401 1.13647 -0.763772
upperneck 40.0162 -2.12075 -2.65648
head 16.9131 -2.75259 -1.86179
rclavicle -2.46493e-014 -1.11319e-014
rhumerus 48.3135 3.84774 -59.5909
rradius 75.4874
rwrist 43.6653
rhand 6.35489 7.32227
rfingers 7.12502
rthumb 31.6614 -19.951
lclavicle -2.46493e-014 -1.11319e-014
lhumerus 21.2838 -27.8305 88.9355
lradius 74.6324
lwrist -39.0839
lhand -18.9548 36.1985
lfingers 7.12502
lthumb 7.34879 66.0508
rfemur -70.2903 -1.40937 26.6466
rtibia 106.406
rfoot -5.89834 -1.37691
rtoes -1.8174
lfemur -23.9346 6.40794 -17.5836
ltibia 14.9422
lfoot 5.81257 -3.73191
ltoes -5.26554
898
root 0.705694 28.8196 0.397507 -169.764 7.07863 187.723
lowerback 18.6367 5.66166 -5.14066
upperback 3.9855 7.39611 3.68547
thorax -7.18609 4.0051 4.99307
lowerneck -14.3427 1.09228 -0.844002
upperneck 40.0434 -2.22032 -2.53573
head 16.9298 -2.78921 -1.8126
rclavicle 2.64384e-014 1.25234e-014
rhumerus 48.0074 3.61789 -59.6548
rradius 75.396
rwrist 43.5473
rhand 5.98782 7.43151
rfingers 7.12502
rthumb 31.3117 -19.9101
lclavicle 2.64384e-014 1.25234e-014
lhumerus 21.6317 -28.0579 88.8439
lradius 74.2695
lwrist -39.3673
lhand -18.3585 35.9812
lfingers 7.12502
lthumb 7.92437 65.8127
rfemur -69.1568 -1.55225 26.7107
rtibia 105.9
rfoot -3.82044 -2.14584
rtoes -1.05107
lfemur -24.4049 6.69314 -17.4882
ltibia 15.7842
lfoot 5.63485 -4.1011
ltoes -5.2017
899
root 0.712731 28.8037 0.399675 -169.777 6.81923 187.815
lowerback 18.626 5.62481 -5.1702
upperback 3.97665 7.34739 3.72423
thorax -7.19214 3.984 5.0657
lowerneck -14.303 1.01964 -0.985638
upperneck 40.0408 -2.29728 -2.5359
head 16.9187 -2.8439 -1.80019
rclavicle 5.07895e-014 3.97569e-015
rhumerus 47.6397 3.4263 -59.6288
rradius 75.5722
rwrist 43.4255
rhand 5.79037 7.3374
rfingers 7.12502
rthumb 31.1235 -20.0405
lclavicle 5.07895e-014 3.97569e-015
lhumerus 22.0609 -28.2853 88.7454
lradius 73.8027
lwrist -39.6405
lhand -17.8284 35.7447
lfingers 7.12502
lthumb 8.4359 65.5562
rfemur -68.0085 -1.72868 26.7539
rtibia 105.294
rfoot -1.91521 -2.92285
rtoes -1.35027
lfemur -24.9105 6.92231 -17.4592
ltibia 16.6086
lfoot 5.49213 -4.49469
ltoes -4.88071
900
root 0.719111 28.7896 0.398658 -169.867 6.50716 187.69
lowerback 18.6067 5.60339 -5.37785
upperback 3.98396 7.27648 3.69078
thorax -7.18334 3.95314 5.16816
lowerneck -14.1257 0.912856 -1.06917
upperneck 39.9796 -2.48675 -2.43959
head 16.84 -2.92178 -1.76793
rclavicle 5.35725e-014 5.96354e-016
rhumerus 47.1237 3.15557 -59.6046
rradius 75.9641
rwrist 43.2836
rhand 5.61597 6.97148
rfingers 7.12502
rthumb 30.9573 -20.4381
lclavicle 5.35725e-014 5.96354e-016
lhumerus 22.4256 -28.6368 88.6219
lradius 73.3814
lwrist -39.8804
lhand -17.4824 35.7528
lfingers 7.12502
lthumb 8.76985 65.5506
rfemur -66.7365 -2.12119 26.611
rtibia 104.522
rfoot -0.0289 -3.54983
rtoes -2.2556
lfemur -25.3601 7.08679 -17.664
ltibia 17.4636
lfoot 5.37675 -4.8435
ltoes -4.43638
901
root 0.728671 28.7861 0.39576 -169.961 6.17295 187.644
lowerback 18.5798 5.5836 -5.54294
upperback 4.00368 7.22187 3.68226
thorax -7.15726 3.93044 5.27031
lowerneck -13.9812 0.793417 -1.24154
upperneck 39.8949 -2.6922 -2.24027
head 16.7608 -3.00158 -1.6754
rclavicle 6.06293e-015 -1.19271e-014
rhumerus 46.7357 2.86866 -59.6217
rradius 76.2638
rwrist 43.1699
rhand 5.6507 6.75088
rfingers 7.12502
rthumb 30.9904 -20.6524
lclavicle 6.06293e-015 -1.19271e-014
lhumerus 22.7487 -28.9385 88.5031
lradius 73.0559
lwrist -40.062
lhand -17.2396 35.9608
lfingers 7.12502
lthumb 9.00416 65.7487
rfemur -65.3069 -2.59457 26.5961
rtibia 103.486
rfoot 1.78152 -3.8607
rtoes -3.39135
lfemur -25.7798 7.37732 -17.81
ltibia 18.3034
lfoot 5.12235 -5.35095
ltoes -4.28984
902
root 0.739293 28.7843 0.389598 -169.83 5.81045 187.762
lowerback 18.2793 5.53048 -5.56378
upperback 4.0131 7.16199 3.71331
thorax -6.98424 3.89872 5.35706
lowerneck -13.929 0.672347 -1.32642
upperneck 39.7786 -2.8318 -2.2077
head 16.6851 -3.05787 -1.66058
rclavicle 4.51241e-014 1.90833e-014
rhumerus 46.4784 2.58244 -59.6465
rradius 76.4853
rwrist 43.0597
rhand 5.66739 6.69754
rfingers 7.12502
rthumb 31.0063 -20.7027
lclavicle 4.51241e-014 1.90833e-014
lhumerus 23.2557 -29.2289 88.2775
lradius 72.6379
lwrist -40.1255
lhand -17.0627 36.2246
lfingers 7.12502
lthumb 9.17481 66.005
rfemur -63.9741 -2.94865 26.7602
rtibia 102.221
rfoot 3.25825 -4.06865
rtoes -4.2823
lfemur -26.4207 7.84966 -17.8675
ltibia 19.08
lfoot 4.93519 -6.05386
ltoes -4.43224
903
root 0.75082 28.7727 0.389842 -169.624 5.4028 187.689
lowerback 17.9047 5.47098 -5.73276
upperback 3.9653 7.05118 3.68494
thorax -6.83513 3.84051 5.47988
lowerneck -13.7509 0.606536 -1.30964
upperneck 39.657 -2.92179 -2.2054
head 16.5734 -3.08771 -1.66587
rclavicle -4.21423e-014 6.95746e-015
rhumerus 46.1439 2.33425 -59.6975
rradius 76.7281
rwrist 43.066
rhand 5.40616 6.63888
rfingers 7.12502
rthumb 30.7573 -20.8086
lclavicle -4.21423e-014 6.95746e-015
lhumerus 23.6915 -29.5436 88.1458
lradius 72.122
lwrist -40.2773
lhand -16.9322 36.2875
lfingers 7.12502
lthumb 9.3008 66.0623
rfemur -62.8365 -3.32977 26.7262
rtibia 100.82
rfoot 4.62319 -4.32754
rtoes -4.60743
lfemur -27.2479 8.29146 -18.1667
ltibia 19.8971
lfoot 4.89075 -6.76448
ltoes -3.80221
904
root 0.765234 28.7538 0.401092 -169.614 4.88703 187.524
lowerback 17.9521 5.39592 -5.94979
upperback 3.87432 6.89463 3.64908
thorax -6.95586 3.76848 5.59855
lowerneck -13.5736 0.582863 -1.46776
upperneck 39.7088 -3.04306 -1.987
head 16.5633 -3.14097 -1.56211
rclavicle 1.30452e-013 1.37161e-014
rhumerus 45.8186 2.13839 -59.7693
rradius 76.928
rwrist 43.2218
rhand 5.21768 6.48772
rfingers 7.12502
rthumb 30.5776 -20.9934
lclavicle 1.30452e-013 1.37161e-014
lhumerus 24.0004 -29.8861 88.0268
lradius 71.6269
lwrist -40.3486
lhand -16.9456 36.4602
lfingers 7.12502
lthumb 9.28788 66.2356
rfemur -61.5436 -3.87884 26.6373
rtibia 99.275
rfoot 5.76882 -4.59842
rtoes -4.46232
lfemur -27.9661 8.57334 -18.4983
ltibia 20.8249
lfoot 4.79598 -7.38121
ltoes -3.35471
905
root 0.77855 28.7358 0.401583 -169.734 4.31377 187.517
lowerback 18.0841 5.29667 -5.96927
upperback 3.88569 6.76175 3.64884
thorax -6.99585 3.70817 5.63595
lowerneck -13.6598 0.506759 -1.71533
upperneck 39.8034 -3.21892 -1.6871
head 16.6469 -3.20883 -1.42298
rclavicle 5.07398e-014 -6.85807e-015
rhumerus 45.6252 1.82649 -59.7683
rradius 77.1391
rwrist 43.1534
rhand 5.29169 6.38508
rfingers 7.12502
rthumb 30.6482 -21.0829
lclavicle 5.07398e-014 -6.85807e-015
lhumerus 24.4289 -30.2616 87.7601
lradius 71.2114
lwrist -40.3569
lhand -17.0068 36.487
lfingers 7.12502
lthumb 9.22878 66.265
rfemur -59.9059 -4.46411 26.7125
rtibia 97.5477
rfoot 6.6617 -4.64473
rtoes -3.65327
lfemur -28.49 8.76905 -18.5965
ltibia 21.8175
lfoot 4.6276 -7.95116
ltoes -2.65554
906
root 0.790233 28.7158 0.387907 -169.835 3.80501 187.515
lowerback 18.0192 5.19977 -5.96363
upperback 3.96765 6.65056 3.63742
thorax -6.85219 3.65387 5.6587
lowerneck -13.7989 0.427063 -1.86597
upperneck 39.7667 -3.28863 -1.57886
head 16.6676 -3.23158 -1.35931
rclavicle 1.54058e-015 -7.55382e-015
rhumerus 45.5546 1.37448 -59.7337
rradius 77.3242
rwrist 42.97
rhand 5.60554 6.69263
rfingers 7.12502
rthumb 30.9474 -20.7189
lclavicle 1.54058e-015 -7.55382e-015
lhumerus 25.0576 -30.6203 87.3623
lradius 70.7054
lwrist -40.2831
lhand -17.3589 36.6091
lfingers 7.12502
lthumb 8.88906 66.4019
rfemur -58.1716 -4.94324 26.7567
rtibia 95.6369
rfoot 7.57562 -4.54899
rtoes -2.39222
lfemur -28.9935 9.13002 -18.7351
ltibia 22.8366
lfoot 4.38975 -8.67105
ltoes -2.0352
907
root 0.80463 28.6895 0.373037 -169.922 3.32387 187.437
lowerback 17.9064 5.12027 -6.06593
upperback 4.00605 6.53438 3.6113
thorax -6.73919 3.59719 5.72949
lowerneck -13.8193 0.388847 -2.02572
upperneck 39.8088 -3.34283 -1.4721
head 16.7015 -3.26218 -1.29525
rclavicle -5.42185e-014 -1.04362e-014
rhumerus 45.4399 0.871261 -59.5516
rradius 77.4601
rwrist 42.805
rhand 5.73896 7.17101
rfingers 7.12502
rthumb 31.0746 -20.2162
lclavicle -5.42185e-014 -1.04362e-014
lhumerus 25.6772 -30.9875 86.9903
lradius 70.1381
lwrist -40.0931
lhand -17.8408 36.9416
lfingers 7.12502
lthumb 8.42395 66.7536
rfemur -56.4208 -5.34299 26.7048
rtibia 93.5845
rfoot 8.21016 -4.56952
rtoes -1.26973
lfemur -29.5147 9.46186 -18.9381
ltibia 23.8706
lfoot 4.13778 -9.3852
ltoes -1.28719
908
root 0.818526 28.661 0.360241 -169.944 2.80656 187.307
lowerback 17.734 5.02778 -6.1945
upperback 4.0033 6.38973 3.56593
thorax -6.63495 3.52468 5.80411
lowerneck -13.7613 0.350824 -2.19286
upperneck 39.8725 -3.4423 -1.30944
head 16.7292 -3.31043 -1.21314
rclavicle 9.93923e-015 -9.34288e-015
rhumerus 45.1863 0.465701 -59.5292
rradius 77.6471
rwrist 42.7851
rhand 5.45045 7.42367
rfingers 7.12502
rthumb 30.7995 -20.0158
lclavicle 9.93923e-015 -9.34288e-015
lhumerus 26.2875 -31.4572 86.503
lradius 69.6629
lwrist -39.7134
lhand -18.1969 37.2067
lfingers 7.12502
lthumb 8.0803 67.0322
rfemur -54.7495 -5.77375 26.6144
rtibia 91.3955
rfoot 8.6033 -4.68255
rtoes -0.670774
lfemur -30.1413 9.6644 -19.1924
ltibia 24.9578
lfoot 3.81738 -10.0875
ltoes -0.899385
